<?xml version="1.0" encoding="utf-8"?>
<!-- Generator: Adobe Illustrator 21.0.0, SVG Export Plug-In . SVG Version: 6.00 Build 0)  -->
<svg version="1.1" id="Слой_1" xmlns="http://www.w3.org/2000/svg" xmlns:xlink="http://www.w3.org/1999/xlink" x="0px" y="0px"
	 viewBox="0 0 170 181" style="enable-background:new 0 0 170 181;" xml:space="preserve">
<style type="text/css">
	.st0{fill:#DB0C0B;}
	.st1{fill:#FFFFFF;}
</style>
<g>
	<g>
		<g>
			<circle class="st0" cx="88.2" cy="85" r="73.3"/>
		</g>
	</g>
	<g>
		<path class="st1" d="M75.8,117.7c-18.1,0-32.7-14.7-32.7-32.7s14.7-32.7,32.7-32.7c8.3,0,15.8,2.9,21.7,8.3L89,68.8
			c-2.5-2.3-6.8-5-13.2-5C64.4,63.8,55,73.3,55,85s9.3,21.2,20.8,21.2c12.7,0,17.9-8.8,18.9-14l0.2-0.9H76.1V80.5h30.7
			c0.2,1.5,0.5,3.1,0.5,5.2C107.2,104.5,94.3,117.7,75.8,117.7z"/>
		<polygon class="st1" points="121.7,98.8 121.7,89.4 112.3,89.4 112.3,80.5 121.7,80.5 121.7,71.1 130.6,71.1 130.6,80.5 140,80.5 
			140,89.4 130.6,89.4 130.6,98.8 		"/>
	</g>
</g>
</svg>
