<?xml version="1.0" encoding="utf-8"?>
<!-- Generator: Adobe Illustrator 21.0.0, SVG Export Plug-In . SVG Version: 6.00 Build 0)  -->
<svg version="1.1" xmlns="http://www.w3.org/2000/svg" xmlns:xlink="http://www.w3.org/1999/xlink" x="0px" y="0px"
	 viewBox="0 0 50 50" style="enable-background:new 0 0 50 50;" xml:space="preserve">
<style type="text/css">
	.st0{display:none;}
	.st1{display:inline;}
	.st2{fill:url(#SVGID_1_);}
	.st3{fill:url(#SVGID_2_);}
	.st4{fill:url(#SVGID_3_);}
	.st5{fill:url(#SVGID_4_);}
	.st6{fill:url(#SVGID_5_);}
	.st7{fill:url(#SVGID_6_);}
	.st8{fill:url(#SVGID_7_);}
	.st9{fill:url(#SVGID_8_);}
	.st10{fill:url(#SVGID_9_);}
	.st11{fill:url(#SVGID_10_);}
	.st12{fill:url(#SVGID_11_);}
	.st13{fill:url(#SVGID_12_);}
	.st14{fill:url(#SVGID_13_);}
	.st15{fill:url(#SVGID_14_);}
</style>
<g id="Слой_1" class="st0">
	<g class="st1">
		<g>
			<g>
				<g>
					
						<linearGradient id="SVGID_1_" gradientUnits="userSpaceOnUse" x1="1816.2045" y1="25.1773" x2="1849.6329" y2="25.1773" gradientTransform="matrix(-1 0 0 1 1855.9124 0)">
						<stop  offset="0" style="stop-color:#7F2424"/>
						<stop  offset="1" style="stop-color:#D53E4F"/>
					</linearGradient>
					<path class="st2" d="M11.2,6.3c4.1-4.1,10.1-5.8,15.7-4.5c4.3,1,8,3.7,10.3,7.4c1.2,1.9,2,4,2.3,6.2c0.4,2.4,0.2,4.8-0.3,7.2
						c-1,4.4-3,8.6-5.3,12.5c-2,3.4-4.3,6.6-6.8,9.7c-0.8,0.9-1.5,1.8-2.3,2.7c-0.4,0.5-0.9,1.2-1.5,1.4c-0.1,0-0.2,0.1-0.3,0.1
						c-0.1,0-0.3-0.1-0.4-0.1c-0.3-0.1-0.6-0.4-0.8-0.6c-0.1-0.1-0.2-0.2-0.3-0.4c-0.7-0.7-1.3-1.5-1.9-2.3c-2.4-2.9-4.6-6-6.6-9.2
						c-2.4-3.9-4.5-8-5.7-12.4c-0.6-2.4-1-4.9-0.8-7.4c0.2-2.6,1.1-5.2,2.5-7.4C9.5,8.1,10.3,7.1,11.2,6.3 M12.9,21.8
						c1.8,4.8,6.8,7.8,11.9,6.9c3.8-0.7,7.1-3.4,8.4-7.1c1.3-3.8,0.3-8-2.4-10.9C27.8,7.6,23.2,6.5,19.2,8
						c-4.8,1.8-7.7,6.9-6.8,11.9C12.5,20.6,12.7,21.2,12.9,21.8C13,22,12.5,20.6,12.9,21.8z"/>
					
						<linearGradient id="SVGID_2_" gradientUnits="userSpaceOnUse" x1="1841.2617" y1="49" x2="1841.2617" y2="1.3552" gradientTransform="matrix(-1 0 0 1 1855.9124 0)">
						<stop  offset="0" style="stop-color:#7F2424"/>
						<stop  offset="1" style="stop-color:#D53E4F"/>
					</linearGradient>
					<path class="st3" d="M6.3,18.1c0,4.3,1.5,8.5,3.3,12.3c1.7,3.6,3.8,7.1,6.1,10.3c1.6,2.2,3.3,4.4,5.1,6.5
						c0.3,0.3,0.6,0.7,0.9,1c0.2,0.2,0.5,0.5,0.8,0.6c0.1,0,0.5,0.2,0.6,0.1c0-0.1,0-0.3,0-0.4c0-2.1,0-4.1,0-6.2c0-2.9,0-5.8,0-8.7
						c0-1.1,0-2.2,0-3.3c0-0.3,0-0.7,0-1c0-0.1,0.1-0.4,0-0.5c-0.1-0.1-0.7-0.1-0.8-0.1c-0.7-0.1-1.3-0.2-1.9-0.3
						c-1.3-0.3-2.5-0.9-3.5-1.7c-2.2-1.6-3.7-3.9-4.2-6.5c-0.6-2.7,0-5.5,1.4-7.9c1.3-2,3.2-3.6,5.4-4.4c0.6-0.2,1.2-0.4,1.9-0.5
						c0.3-0.1,0.6-0.1,0.9-0.1c0.2,0,0.3,0,0.5,0c0,0,0.4,0,0.4,0c0,0,0-0.2,0-0.3c0-0.2,0-0.5,0-0.7c0-1.4,0-2.7,0-4.1
						c0-0.3,0-0.6,0-0.9c-3.7,0-7.4,1.3-10.3,3.6c-2.5,2-4.4,4.7-5.5,7.7C6.6,14.4,6.3,16.2,6.3,18.1z"/>
				</g>
				<g>
					
						<linearGradient id="SVGID_3_" gradientUnits="userSpaceOnUse" x1="1821.6128" y1="18.073" x2="1844.2224" y2="18.073" gradientTransform="matrix(-1 0 0 1 1855.9124 0)">
						<stop  offset="0" style="stop-color:#D53E4F"/>
						<stop  offset="1" style="stop-color:#7F2424"/>
					</linearGradient>
					<path class="st4" d="M34.3,18.1c0,4.7-3,9-7.5,10.6c-4.5,1.6-9.6,0.2-12.6-3.4c-3-3.7-3.4-9-1-13c2.5-4.1,7.3-6.2,12-5.2
						c4.6,0.9,8.2,4.7,8.9,9.3C34.3,16.9,34.3,17.5,34.3,18.1z M19.4,10c-3.8,1.7-5.9,6-5,10c0.7,3.1,3.1,5.7,6.2,6.5
						c3.1,0.9,6.6-0.1,8.8-2.4c2.4-2.6,3.1-6.4,1.6-9.7c-1.7-3.8-6.1-6-10.2-4.9C20.3,9.7,19.8,9.8,19.4,10
						C19.1,10.2,19.6,10,19.4,10z"/>
				</g>
			</g>
		</g>
		
			<linearGradient id="SVGID_4_" gradientUnits="userSpaceOnUse" x1="1828.7577" y1="18.0795" x2="1837.0726" y2="18.0795" gradientTransform="matrix(-1 0 0 1 1855.9124 0)">
			<stop  offset="0" style="stop-color:#7F2424"/>
			<stop  offset="1" style="stop-color:#D53E4F"/>
		</linearGradient>
		<path class="st5" d="M23,13.9c1.7,0,3.3,1.1,3.9,2.8c0.6,1.6,0.1,3.5-1.3,4.6c-1.3,1.1-3.3,1.3-4.8,0.4c-1.5-0.9-2.3-2.7-1.9-4.4
			C19.3,15.4,21,13.9,23,13.9z"/>
		<g>
			<g>
				<g>
					
						<linearGradient id="SVGID_5_" gradientUnits="userSpaceOnUse" x1="1816.2045" y1="25.1773" x2="1849.6329" y2="25.1773" gradientTransform="matrix(-1 0 0 1 1855.9124 0)">
						<stop  offset="0" style="stop-color:#7F2424"/>
						<stop  offset="1" style="stop-color:#D53E4F"/>
					</linearGradient>
					<path class="st6" d="M11.2,6.3c4.1-4.1,10.1-5.8,15.7-4.5c4.3,1,8,3.7,10.3,7.4c1.2,1.9,2,4,2.3,6.2c0.4,2.4,0.2,4.8-0.3,7.2
						c-1,4.4-3,8.6-5.3,12.5c-2,3.4-4.3,6.6-6.8,9.7c-0.8,0.9-1.5,1.8-2.3,2.7c-0.4,0.5-0.9,1.2-1.5,1.4c-0.1,0-0.2,0.1-0.3,0.1
						c-0.1,0-0.3-0.1-0.4-0.1c-0.3-0.1-0.6-0.4-0.8-0.6c-0.1-0.1-0.2-0.2-0.3-0.4c-0.7-0.7-1.3-1.5-1.9-2.3c-2.4-2.9-4.6-6-6.6-9.2
						c-2.4-3.9-4.5-8-5.7-12.4c-0.6-2.4-1-4.9-0.8-7.4c0.2-2.6,1.1-5.2,2.5-7.4C9.5,8.1,10.3,7.1,11.2,6.3 M12.9,21.8
						c1.8,4.8,6.8,7.8,11.9,6.9c3.8-0.7,7.1-3.4,8.4-7.1c1.3-3.8,0.3-8-2.4-10.9C27.8,7.6,23.2,6.5,19.2,8
						c-4.8,1.8-7.7,6.9-6.8,11.9C12.5,20.6,12.7,21.2,12.9,21.8C13,22,12.5,20.6,12.9,21.8z"/>
					
						<linearGradient id="SVGID_6_" gradientUnits="userSpaceOnUse" x1="1841.2617" y1="49" x2="1841.2617" y2="1.3552" gradientTransform="matrix(-1 0 0 1 1855.9124 0)">
						<stop  offset="0" style="stop-color:#7F2424"/>
						<stop  offset="1" style="stop-color:#D53E4F"/>
					</linearGradient>
					<path class="st7" d="M6.3,18.1c0,4.3,1.5,8.5,3.3,12.3c1.7,3.6,3.8,7.1,6.1,10.3c1.6,2.2,3.3,4.4,5.1,6.5
						c0.3,0.3,0.6,0.7,0.9,1c0.2,0.2,0.5,0.5,0.8,0.6c0.1,0,0.5,0.2,0.6,0.1c0-0.1,0-0.3,0-0.4c0-2.1,0-4.1,0-6.2c0-2.9,0-5.8,0-8.7
						c0-1.1,0-2.2,0-3.3c0-0.3,0-0.7,0-1c0-0.1,0.1-0.4,0-0.5c-0.1-0.1-0.7-0.1-0.8-0.1c-0.7-0.1-1.3-0.2-1.9-0.3
						c-1.3-0.3-2.5-0.9-3.5-1.7c-2.2-1.6-3.7-3.9-4.2-6.5c-0.6-2.7,0-5.5,1.4-7.9c1.3-2,3.2-3.6,5.4-4.4c0.6-0.2,1.2-0.4,1.9-0.5
						c0.3-0.1,0.6-0.1,0.9-0.1c0.2,0,0.3,0,0.5,0c0,0,0.4,0,0.4,0c0,0,0-0.2,0-0.3c0-0.2,0-0.5,0-0.7c0-1.4,0-2.7,0-4.1
						c0-0.3,0-0.6,0-0.9c-3.7,0-7.4,1.3-10.3,3.6c-2.5,2-4.4,4.7-5.5,7.7C6.6,14.4,6.3,16.2,6.3,18.1z"/>
				</g>
				<g>
					
						<linearGradient id="SVGID_7_" gradientUnits="userSpaceOnUse" x1="1821.6128" y1="18.073" x2="1844.2224" y2="18.073" gradientTransform="matrix(-1 0 0 1 1855.9124 0)">
						<stop  offset="0" style="stop-color:#D53E4F"/>
						<stop  offset="1" style="stop-color:#7F2424"/>
					</linearGradient>
					<path class="st8" d="M34.3,18.1c0,4.7-3,9-7.5,10.6c-4.5,1.6-9.6,0.2-12.6-3.4c-3-3.7-3.4-9-1-13c2.5-4.1,7.3-6.2,12-5.2
						c4.6,0.9,8.2,4.7,8.9,9.3C34.3,16.9,34.3,17.5,34.3,18.1z M19.4,10c-3.8,1.7-5.9,6-5,10c0.7,3.1,3.1,5.7,6.2,6.5
						c3.1,0.9,6.6-0.1,8.8-2.4c2.4-2.6,3.1-6.4,1.6-9.7c-1.7-3.8-6.1-6-10.2-4.9C20.3,9.7,19.8,9.8,19.4,10
						C19.1,10.2,19.6,10,19.4,10z"/>
				</g>
			</g>
		</g>
		
			<linearGradient id="SVGID_8_" gradientUnits="userSpaceOnUse" x1="1828.7577" y1="18.0795" x2="1837.0726" y2="18.0795" gradientTransform="matrix(-1 0 0 1 1855.9124 0)">
			<stop  offset="0" style="stop-color:#7F2424"/>
			<stop  offset="1" style="stop-color:#D53E4F"/>
		</linearGradient>
		<path class="st9" d="M23,13.9c1.7,0,3.3,1.1,3.9,2.8c0.6,1.6,0.1,3.5-1.3,4.6c-1.3,1.1-3.3,1.3-4.8,0.4c-1.5-0.9-2.3-2.7-1.9-4.4
			C19.3,15.4,21,13.9,23,13.9z"/>
		<g>
			<g>
				<g>
					
						<linearGradient id="SVGID_9_" gradientUnits="userSpaceOnUse" x1="1816.2045" y1="25.1773" x2="1849.6329" y2="25.1773" gradientTransform="matrix(-1 0 0 1 1855.9124 0)">
						<stop  offset="0" style="stop-color:#7F2424"/>
						<stop  offset="1" style="stop-color:#D53E4F"/>
					</linearGradient>
					<path class="st10" d="M11.2,6.3c4.1-4.1,10.1-5.8,15.7-4.5c4.3,1,8,3.7,10.3,7.4c1.2,1.9,2,4,2.3,6.2c0.4,2.4,0.2,4.8-0.3,7.2
						c-1,4.4-3,8.6-5.3,12.5c-2,3.4-4.3,6.6-6.8,9.7c-0.8,0.9-1.5,1.8-2.3,2.7c-0.4,0.5-0.9,1.2-1.5,1.4c-0.1,0-0.2,0.1-0.3,0.1
						c-0.1,0-0.3-0.1-0.4-0.1c-0.3-0.1-0.6-0.4-0.8-0.6c-0.1-0.1-0.2-0.2-0.3-0.4c-0.7-0.7-1.3-1.5-1.9-2.3c-2.4-2.9-4.6-6-6.6-9.2
						c-2.4-3.9-4.5-8-5.7-12.4c-0.6-2.4-1-4.9-0.8-7.4c0.2-2.6,1.1-5.2,2.5-7.4C9.5,8.1,10.3,7.1,11.2,6.3 M12.9,21.8
						c1.8,4.8,6.8,7.8,11.9,6.9c3.8-0.7,7.1-3.4,8.4-7.1c1.3-3.8,0.3-8-2.4-10.9C27.8,7.6,23.2,6.5,19.2,8
						c-4.8,1.8-7.7,6.9-6.8,11.9C12.5,20.6,12.7,21.2,12.9,21.8C13,22,12.5,20.6,12.9,21.8z"/>
					
						<linearGradient id="SVGID_10_" gradientUnits="userSpaceOnUse" x1="1841.2617" y1="49" x2="1841.2617" y2="1.3552" gradientTransform="matrix(-1 0 0 1 1855.9124 0)">
						<stop  offset="0" style="stop-color:#7F2424"/>
						<stop  offset="1" style="stop-color:#D53E4F"/>
					</linearGradient>
					<path class="st11" d="M6.3,18.1c0,4.3,1.5,8.5,3.3,12.3c1.7,3.6,3.8,7.1,6.1,10.3c1.6,2.2,3.3,4.4,5.1,6.5
						c0.3,0.3,0.6,0.7,0.9,1c0.2,0.2,0.5,0.5,0.8,0.6c0.1,0,0.5,0.2,0.6,0.1c0-0.1,0-0.3,0-0.4c0-2.1,0-4.1,0-6.2c0-2.9,0-5.8,0-8.7
						c0-1.1,0-2.2,0-3.3c0-0.3,0-0.7,0-1c0-0.1,0.1-0.4,0-0.5c-0.1-0.1-0.7-0.1-0.8-0.1c-0.7-0.1-1.3-0.2-1.9-0.3
						c-1.3-0.3-2.5-0.9-3.5-1.7c-2.2-1.6-3.7-3.9-4.2-6.5c-0.6-2.7,0-5.5,1.4-7.9c1.3-2,3.2-3.6,5.4-4.4c0.6-0.2,1.2-0.4,1.9-0.5
						c0.3-0.1,0.6-0.1,0.9-0.1c0.2,0,0.3,0,0.5,0c0,0,0.4,0,0.4,0c0,0,0-0.2,0-0.3c0-0.2,0-0.5,0-0.7c0-1.4,0-2.7,0-4.1
						c0-0.3,0-0.6,0-0.9c-3.7,0-7.4,1.3-10.3,3.6c-2.5,2-4.4,4.7-5.5,7.7C6.6,14.4,6.3,16.2,6.3,18.1z"/>
				</g>
				<g>
					
						<linearGradient id="SVGID_11_" gradientUnits="userSpaceOnUse" x1="1821.6128" y1="18.073" x2="1844.2224" y2="18.073" gradientTransform="matrix(-1 0 0 1 1855.9124 0)">
						<stop  offset="0" style="stop-color:#D53E4F"/>
						<stop  offset="1" style="stop-color:#7F2424"/>
					</linearGradient>
					<path class="st12" d="M34.3,18.1c0,4.7-3,9-7.5,10.6c-4.5,1.6-9.6,0.2-12.6-3.4c-3-3.7-3.4-9-1-13c2.5-4.1,7.3-6.2,12-5.2
						c4.6,0.9,8.2,4.7,8.9,9.3C34.3,16.9,34.3,17.5,34.3,18.1z M19.4,10c-3.8,1.7-5.9,6-5,10c0.7,3.1,3.1,5.7,6.2,6.5
						c3.1,0.9,6.6-0.1,8.8-2.4c2.4-2.6,3.1-6.4,1.6-9.7c-1.7-3.8-6.1-6-10.2-4.9C20.3,9.7,19.8,9.8,19.4,10
						C19.1,10.2,19.6,10,19.4,10z"/>
				</g>
			</g>
		</g>
		
			<linearGradient id="SVGID_12_" gradientUnits="userSpaceOnUse" x1="1828.7577" y1="18.0795" x2="1837.0726" y2="18.0795" gradientTransform="matrix(-1 0 0 1 1855.9124 0)">
			<stop  offset="0" style="stop-color:#7F2424"/>
			<stop  offset="1" style="stop-color:#D53E4F"/>
		</linearGradient>
		<path class="st13" d="M23,13.9c1.7,0,3.3,1.1,3.9,2.8c0.6,1.6,0.1,3.5-1.3,4.6c-1.3,1.1-3.3,1.3-4.8,0.4c-1.5-0.9-2.3-2.7-1.9-4.4
			C19.3,15.4,21,13.9,23,13.9z"/>
	</g>
</g>
<g id="Слой_2">
	<radialGradient id="SVGID_13_" cx="23" cy="25.4373" r="20.4992" gradientUnits="userSpaceOnUse">
		<stop  offset="0" style="stop-color:#DB0C0B"/>
		<stop  offset="0.9937" style="stop-color:#B20B0B"/>
		<stop  offset="1" style="stop-color:#B20B0B"/>
	</radialGradient>
	<path class="st14" d="M33,4.8c-6.1-3.8-14-3.8-20,0C-7,17.4,23,49,23,49S53,17.4,33,4.8z M23,27c-5,0-9-4-9-9c0-5,4-9,9-9s9,4,9,9
		C32,23,28,27,23,27z"/>
	<radialGradient id="SVGID_14_" cx="23" cy="18" r="4" gradientUnits="userSpaceOnUse">
		<stop  offset="0" style="stop-color:#DB0C0B"/>
		<stop  offset="0.9937" style="stop-color:#B20B0B"/>
		<stop  offset="1" style="stop-color:#B20B0B"/>
	</radialGradient>
	<circle class="st15" cx="23" cy="18" r="4"/>
</g>
</svg>
