<?xml version="1.0" encoding="utf-8"?>
<!-- Generator: Adobe Illustrator 21.0.0, SVG Export Plug-In . SVG Version: 6.00 Build 0)  -->
<svg version="1.1" id="Layer_1" xmlns="http://www.w3.org/2000/svg" xmlns:xlink="http://www.w3.org/1999/xlink" x="0px" y="0px"
	 viewBox="0 0 105 106.5" style="enable-background:new 0 0 105 106.5;" xml:space="preserve">
<style type="text/css">
	.st0{fill:#05D331;}
</style>
<g>
	<g>
		<g>
			<path class="st0" d="M84.7,50.9c-1.8,0-1.8-1.4-1.8-2.9c0-0.3,0-0.5,0-0.8c0-0.1,0-0.3,0-0.4c-2.4-18.8-11-29-30.1-30.4
				c-1.2-0.1-3.7-0.4-3.7-1.7c0.1-1.7,1.1-2.1,2.2-2.1c0.3,0,1.5,0,2.3,0c22,1.4,31.7,15.5,33,34.4c0,0.3,0.2,3-0.4,3.6
				C85.7,50.8,85.3,50.9,84.7,50.9L84.7,50.9z"/>
			<path class="st0" d="M75.2,47.4c-1.2,0-1.6-0.8-1.7-2.1c0-0.2,0-0.3,0-0.5c0-0.4,0-0.7-0.1-1.1c-1.9-11.4-6.1-15.6-17.8-18.2
				c-0.3-0.1-0.7-0.1-1.1-0.2c-1-0.1-2-0.3-2.5-0.9c-0.2-0.3-0.3-0.8-0.2-1.4c0.2-1.1,0.8-1.7,1.9-1.6c14.5,1.3,22.7,9,23.3,24.5
				c0,0.8-0.5,1.2-1.3,1.3C75.6,47.4,75.4,47.4,75.2,47.4L75.2,47.4z"/>
			<path class="st0" d="M66.5,44.7c-0.5,0-0.9-0.2-1.2-0.6c-0.3-0.4-0.5-0.9-0.6-1.4c-0.5-4.8-3.2-7.6-7.9-8.4
				c-0.8-0.1-1.7-0.3-2-0.9c-0.2-0.3-0.2-0.8,0-1.4c0.4-1.1,1.5-1.3,2.7-1.3c2.2,0.1,5.2,1.3,7.5,3.6c2.2,2.3,3.5,5,3.5,7.4
				c0,1,0,2.1-0.8,2.7c-0.2,0.2-0.5,0.3-0.9,0.3C66.6,44.7,66.5,44.7,66.5,44.7z"/>
			<path class="st0" d="M72.6,87.9c-2.6,0-5.2-1.3-7.6-2.4c-0.4-0.2-0.8-0.4-1.3-0.6c-3.3-1.6-6.6-3.3-9.7-5.1
				c-12.3-7.3-22.9-17.1-30.7-28.3c-2.2-3.1-4.2-6.4-6-9.8l-0.2-0.5c-1.8-3.5-3.8-7.1-4.8-10.8C10.8,24.5,13,19,18.3,15.8
				c2.4-1.5,4.6-2.2,6.4-2.2c1,0,1.9,0.2,2.7,0.7c1.8,1,3.2,2.6,4.5,4.1c3,3.4,6.6,7.8,8.3,12.5c0.8,2.3,0,4.6-2.3,6.4
				c-0.3,0.2-0.6,0.4-0.9,0.7c-1.1,0.8-2.3,1.7-3,3c-0.7,1.3-0.9,2.9-0.5,4.6c0.7,2.9,2.4,6,5.2,9.5c2.1,2.6,4.6,4.9,7.4,6.9
				c2.8,1.9,6,4,9.2,4.6c0.4,0.1,0.8,0.1,1.1,0.1c1.3,0,2.5-0.4,3.4-1.2c0.7-0.6,1.3-1.3,1.8-2.1c0.5-0.6,1-1.3,1.6-1.8
				c1.3-1.2,2.9-1.8,4.6-1.8c1.1,0,2.2,0.3,3.4,0.7c1.5,0.7,2.9,1.6,4.2,2.6l0.8,0.6c1.6,1.1,3.4,2.4,5.1,3.7l1,0.8l0,0
				c0.1,0,0.1,0.1,0.2,0.1c2.3,1.7,4.7,3.5,4.6,6.5c-0.1,3.6-3,6.8-4.7,8.5c-2.7,2.6-5.9,4.2-8.9,4.6C73.3,87.9,72.9,87.9,72.6,87.9
				L72.6,87.9z"/>
		</g>
	</g>
</g>
</svg>
