<?xml version="1.0" encoding="utf-8"?>
<!-- Generator: Adobe Illustrator 21.0.0, SVG Export Plug-In . SVG Version: 6.00 Build 0)  -->
<svg version="1.1" id="Слой_1" xmlns="http://www.w3.org/2000/svg" xmlns:xlink="http://www.w3.org/1999/xlink" x="0px" y="0px"
	 viewBox="0 0 172 169" style="enable-background:new 0 0 172 169;" xml:space="preserve">
<style type="text/css">
	.st0{fill:#621F90;}
	.st1{clip-path:url(#SVGID_4_);}
	.st2{clip-path:url(#SVGID_5_);fill:url(#SVGID_6_);}
	.st3{fill:#FFFFFF;}
</style>
<g>
	<g>
		<g>
			<g>
				<g>
					<g>
						<circle class="st0" cx="90.2" cy="83.7" r="73.3"/>
						<g>
							<g>
								<defs>
									<polygon id="SVGID_1_" points="1,1 2,1 1,2 									"/>
								</defs>
								<defs>
									<polygon id="SVGID_3_" points="-1,-1 -2,-1 -1,-2 									"/>
								</defs>
								<clipPath id="SVGID_4_">
									<use xlink:href="#SVGID_1_"  style="overflow:visible;"/>
								</clipPath>
								<clipPath id="SVGID_5_" class="st1">
									<use xlink:href="#SVGID_3_"  style="overflow:visible;"/>
								</clipPath>
								
									<radialGradient id="SVGID_6_" cx="-500.2885" cy="363.4996" r="90.0681" gradientTransform="matrix(0.1589 -0.9873 -0.9873 -0.1589 446.9903 -364.0199)" gradientUnits="userSpaceOnUse">
									<stop  offset="0" style="stop-color:#FFFFFF"/>
									<stop  offset="1" style="stop-color:#808080"/>
								</radialGradient>
								<path class="st2" d="M81.3,17.9c20.6,3.3,22.3,37.8,17.8,66s-17,60.4-37.6,57.1S20,100.1,24.6,71.9
									C29.1,43.6,60.7,14.5,81.3,17.9z"/>
							</g>
						</g>
					</g>
				</g>
			</g>
		</g>
		<g>
			<path class="st3" d="M125.3,84.4c-1.8,0-1.8-1.4-1.8-2.9c0-0.3,0-0.5,0-0.8c0-0.1,0-0.3,0-0.4c-2.4-18.8-11-29-30.1-30.4
				c-1.2-0.1-3.7-0.4-3.7-1.7c0.1-1.7,1.1-2.1,2.2-2.1c0.3,0,1.5,0,2.3,0c22,1.4,31.7,15.5,33,34.4c0,0.3,0.2,3-0.4,3.6
				C126.3,84.2,126,84.4,125.3,84.4L125.3,84.4z"/>
			<path class="st3" d="M115.9,80.9c-1.2,0-1.6-0.8-1.7-2.1c0-0.2,0-0.3,0-0.5c0-0.4,0-0.7-0.1-1.1c-2-11.4-6.1-15.6-17.8-18.2
				c-0.3-0.1-0.7-0.1-1.1-0.2c-1-0.1-2-0.3-2.5-0.9c-0.2-0.3-0.3-0.8-0.2-1.4c0.2-1.1,0.8-1.7,1.9-1.6c14.5,1.3,22.7,9,23.3,24.5
				c0,0.8-0.5,1.2-1.3,1.3C116.2,80.9,116,80.9,115.9,80.9L115.9,80.9z"/>
			<path class="st3" d="M107.1,78.1c-0.5,0-0.9-0.2-1.2-0.6c-0.3-0.4-0.5-0.9-0.6-1.4c-0.5-4.8-3.2-7.6-7.9-8.4
				c-0.8-0.1-1.7-0.3-2-0.9c-0.2-0.3-0.2-0.8,0-1.4c0.4-1.1,1.5-1.3,2.7-1.3c2.2,0.1,5.2,1.3,7.5,3.6c2.2,2.3,3.5,5,3.5,7.4
				c0,1,0,2.1-0.8,2.7c-0.2,0.2-0.5,0.3-0.9,0.3C107.2,78.1,107.1,78.1,107.1,78.1z"/>
			<path class="st3" d="M113.2,121.4c-2.6,0-5.2-1.3-7.6-2.4c-0.4-0.2-0.8-0.4-1.3-0.6c-3.3-1.6-6.6-3.3-9.7-5.1
				C82.4,106,71.8,96.2,64,84.9c-2.2-3.1-4.2-6.4-6-9.8l-0.2-0.5c-1.8-3.4-3.8-7-4.8-10.8c-1.6-5.9,0.6-11.4,5.9-14.5
				c2.4-1.5,4.6-2.2,6.4-2.2c1,0,1.9,0.2,2.7,0.7c1.8,1,3.2,2.6,4.5,4.1c3,3.4,6.6,7.8,8.3,12.5c0.8,2.3,0,4.6-2.3,6.4
				c-0.3,0.2-0.6,0.4-0.9,0.7c-1.1,0.8-2.3,1.7-3,3s-0.9,2.9-0.5,4.6c0.7,2.9,2.4,6,5.2,9.5c2.1,2.6,4.6,4.9,7.4,6.9
				c2.8,1.9,6,4,9.2,4.6c0.4,0.1,0.8,0.1,1.1,0.1c1.3,0,2.5-0.4,3.4-1.2c0.7-0.6,1.3-1.3,1.8-2.1c0.5-0.6,1-1.3,1.6-1.8
				c1.3-1.2,2.9-1.8,4.6-1.8c1.1,0,2.2,0.3,3.4,0.7c1.5,0.7,2.9,1.6,4.2,2.6l0.8,0.6c1.6,1.1,3.4,2.4,5.1,3.7l1,0.8l0,0
				c0.1,0,0.1,0.1,0.2,0.1c2.3,1.7,4.7,3.5,4.6,6.5c-0.1,3.6-3,6.8-4.7,8.5c-2.7,2.6-5.9,4.2-8.9,4.6
				C113.9,121.4,113.6,121.4,113.2,121.4L113.2,121.4z"/>
		</g>
	</g>
</g>
</svg>
