<svg xmlns="http://www.w3.org/2000/svg" viewBox="0 0 246 154"  fill="#fff" xmlns:v="https://vecta.io/nano"><path d="M96.2 42.8v-.1c.1 0 .1.1 0 .1h0z"/><path d="M100.6 32.4c-20.7-6.6-30.9-17-40.4-26.2C25.9 36.8 17.1 32.7 5.7 34.6-5.6 113.4 49.4 148 49.4 148l3.2-7S7 117.5 11.8 41.5c9.5-1.3 18.6-1.3 47.9-24.9 9.1 6.9 23.8 19.4 38 22.9l-1.4 3.2 4.3-10.3z"/><path d="M14.1 44c-.2 11.1-.7 71.3 39.6 94.3l8.9-19.7c-1.1.2-1.8.4-2.2.5-3.6.6-6.8 1.4-10.7 3-4.7 2.5-4.6.8-5.6 0 0 0-2-2.8-3.2-5.4-.5-1.7-.4-5-1.2-5.7-3.1-1.7-3.3-3.9-2.9-3.9s.6-.6.1-1.2c-1.4-.1-.7-1.4 0-2.6 2.9-2.8 1.7-2.3 0-2.9 4.6-20.2 5.6-29 6.4-29.9 1.2-.5 2.1-1.5 1.9-4 14.2-19.2 32.2-19.4 47.2-14.4l4.1-9.3S72.8 32.7 59.9 19.9c-.3 0-20.4 20.6-45.8 24.1z"/><path d="M92.9 52.4s16.2 6.4 28.4 16.4l-2.5 3.3s.6 6.3.8 10.6c.8 2.7 1.1 3.9 0 5.7-.5 1.9-1.3 6.9-2.2 8.4-1.1 2.2-1.6 3 .6 6-2.4 1.3-29.3 10.9-55.4 16 1.3-4.8 30.3-66.4 30.3-66.4zm21.2 70.2l-4.1.8c.2-.8.3-1.5.3-2 0-3.5-2.1-5.3-6.4-5.3-3.4 0-5.1 1.2-5.1 3.6 0 1.8 1.9 3.4 5.7 4.7 7.3 2.5 10.9 6.2 10.9 11.1 0 2.9-1 5.2-3.1 6.9-2 1.7-4.7 2.6-8.1 2.6-7.5 0-11.2-2.9-11.2-8.7 0-.5 0-1.1.1-1.8l4.2-.9c-.3 1.3-.5 2.4-.5 3.3 0 3.8 2.1 5.6 6.4 5.6 3.4 0 5.2-1.4 5.2-4.1 0-2-2.1-3.8-6.2-5.3-6-2.2-8.9-5.7-8.9-10.5 0-2.7 1-4.9 3-6.6s4.6-2.5 7.8-2.5c6.7.1 10 3.1 10 9.1zm13.9 6.7v15h-8.8v-30.2h8.8v12.2h7.2v-12.2h8.8v30.2h-8.8v-15H128zm29.9-15.2v30.2h-8.8v-30.2h8.8zm24.9 0v3H172v9.2h9.1v3H172v12h12.7v3h-21.4v-30.2h19.5zm13.3 0v27.2h12.4v3h-21.2v-30.2h8.8zm14.3 30.2v-30.2H223c8.9 0 13.4 5.1 13.4 15.2s-4.6 15.1-13.8 15.1h-12.2zm8.8-2.5h2.3c2.1 0 3.6-.9 4.4-2.7s1.2-5.1 1.2-9.9-.4-8.1-1.2-9.9-2.3-2.7-4.4-2.7h-2.3v25.2zm-64-68.6v30.2h-8.5v-21l-5.9 21.1H136l-6-20.7v20.7h-3V73.2h8.9l5.2 18.3 5.2-18.3h8.9zm17.6-.6c8.8 0 13.2 5.2 13.2 15.6s-4.5 15.6-13.5 15.6-13.5-5.3-13.5-16c.1-10.1 4.7-15.2 13.8-15.2zm-.2 2.5c-1.7 0-2.8.9-3.4 2.7s-.9 5.3-.9 10.5.3 8.7.9 10.5 1.7 2.7 3.4 2.7 2.8-.9 3.4-2.7.9-5.3.9-10.5-.3-8.6-.9-10.5c-.6-1.8-1.8-2.7-3.4-2.7zm38.5-1.9v3h-7.4v27.2h-9.3V76.2h-7.5v-3h24.2zm14.7-.6c8.8 0 13.2 5.2 13.2 15.6s-4.5 15.6-13.5 15.6-13.5-5.3-13.5-16c.1-10.1 4.7-15.2 13.8-15.2zm-.3 2.5c-1.7 0-2.8.9-3.4 2.7s-.9 5.3-.9 10.5.3 8.7.9 10.5 1.7 2.7 3.4 2.7 2.8-.9 3.4-2.7.9-5.3.9-10.5-.3-8.6-.9-10.5c-.6-1.8-1.7-2.7-3.4-2.7z"/></svg>