<svg xmlns="http://www.w3.org/2000/svg" viewBox="0 0 810 135"  xmlns:v="https://vecta.io/nano"><style><![CDATA[.E{font-family:ArialMT}.F{font-size:11.416px}.G{stroke:#000}.H{stroke-miterlimit:10}.I{fill:#5c99e8}.J{fill:#eaeaea}]]></style><g class="G H I"><path d="M10.5 13.9h71.8v38.7H10.5z"/><path d="M82.3 13.9h71.8v38.7H82.3z"/><path d="M154 13.9h71.8v38.7H154z"/><path d="M225.8 13.9h71.8v38.7h-71.8z"/><path d="M297.5 13.9h71.8v38.7h-71.8z"/><path d="M369.3 13.9h71.8v38.7h-71.8z"/><path d="M441.1 13.9h71.8v38.7h-71.8z"/><path d="M512.8 13.9h71.8v38.7h-71.8zM10.5 52.6h71.8v38.7H10.5z"/><path d="M82.3 52.6h71.8v38.7H82.3z"/><path d="M154 52.6h71.8v38.7H154z"/><path d="M225.8 52.6h71.8v38.7h-71.8z"/><path d="M297.5 52.6h71.8v38.7h-71.8z"/><path d="M369.3 52.6h71.8v38.7h-71.8z"/><path d="M441.1 52.6h71.8v38.7h-71.8z"/><path d="M512.8 52.6h71.8v38.7h-71.8z"/></g><g class="J G H"><path d="M441.1 91.3h71.8V130h-71.8z"/><path d="M512.8 91.3h71.8V130h-71.8z"/></g><path d="M10.5 91.3h71.8V130H10.5z" class="G H I"/><g class="J G H"><path d="M82.3 91.3h71.8V130H82.3z"/><path d="M154 91.3h71.8V130H154z"/><path d="M225.8 91.3h71.8V130h-71.8z"/><path d="M297.5 91.3h71.8V130h-71.8z"/><path d="M369.3 91.3h71.8V130h-71.8zm215.4 0h71.8V130h-71.8z"/></g><g class="I G H"><path d="M584.7 13.9h71.8v38.7h-71.8z"/><path d="M656.5 13.9h71.8v38.7h-71.8z"/><path d="M728.2 13.9H800v38.7h-71.8zM584.7 52.6h71.8v38.7h-71.8z"/><path d="M656.5 52.6h71.8v38.7h-71.8z"/><path d="M728.2 52.6H800v38.7h-71.8z"/></g><g class="J G H"><path d="M656.5 91.3h71.8V130h-71.8z"/><path d="M728.2 91.3H800V130h-71.8z"/></g><text transform="matrix(1.1593 0 0 1 29.2515 32.6133)" class="E F">Размер</text><text transform="matrix(1.1593 0 0 1 35.9653 43.043)" class="E F">Euro</text><text transform="matrix(1.1593 0 0 1 29.2515 71.1875)" class="E F">Размер</text><text transform="matrix(1.1593 0 0 1 36.7866 81.8164)" class="E F">USA</text><text transform="matrix(1.1593 0 0 1 31.415 109.9609)" class="E F">Длина</text><text transform="matrix(1.1593 0 0 1 40.4282 118.4229)" class="E F">см</text><text transform="matrix(1.1593 0 0 1 111.3545 113.9961)" class="E F">25</text><text transform="matrix(1.1593 0 0 1 178.353 113.9961)" class="E F">25,5</text><text transform="matrix(1.1593 0 0 1 254.8794 113.9961)" class="E F">26</text><text transform="matrix(1.1593 0 0 1 326.6411 113.9961)" class="E F">27</text><text transform="matrix(1.1593 0 0 1 398.4038 113.9961)" class="E F">28</text><text transform="matrix(1.1593 0 0 1 609.041 113.9961)" class="E F">29,5</text><text transform="matrix(1.1593 0 0 1 326.6421 36.5791)" class="E F">42</text><text transform="matrix(1.1593 0 0 1 398.4038 36.5781)" class="E F">43</text><text transform="matrix(1.1593 0 0 1 470.1665 36.5791)" class="E F">44</text><text transform="matrix(1.1593 0 0 1 541.9277 36.5791)" class="E F">45</text><text transform="matrix(1.1593 0 0 1 253.5093 75.2871)" class="E F">7,5</text><text transform="matrix(1.1593 0 0 1 325.272 75.2871)" class="E F">8,5</text><text transform="matrix(1.1593 0 0 1 397.0347 75.2871)" class="E F">9,5</text><text transform="matrix(1.1593 0 0 1 470.1665 75.2871)" class="E F">10</text><text transform="matrix(1.1593 0 0 1 609.041 75.2871)" class="E F">11,5</text><text transform="matrix(1.1593 0 0 1 680.8037 75.2871)" class="E F">12,5</text><text transform="matrix(1.1593 0 0 1 752.5654 75.2871)" class="E F">13,5</text><text transform="matrix(1.1593 0 0 1 465.4028 113.9961)" class="E F">28,5</text><text transform="matrix(1.1593 0 0 1 541.9277 113.9961)" class="E F">29</text><text transform="matrix(1.1593 0 0 1 680.8037 113.9961)" class="E F">30,5</text><text transform="matrix(1.1593 0 0 1 752.5654 113.9961)" class="E F">31,5</text><text transform="matrix(1.1593 0 0 1 111.354 36.5791)" class="E F">39</text><text transform="matrix(1.1593 0 0 1 183.1177 36.5781)" class="E F">40</text><text transform="matrix(1.1593 0 0 1 254.8794 36.5791)" class="E F">41</text><text transform="matrix(1.1593 0 0 1 541.9277 75.2871)" class="E F">11</text><text transform="matrix(1.1593 0 0 1 613.8047 36.5781)" class="E F">46</text><text transform="matrix(1.1593 0 0 1 685.5674 36.5791)" class="E F">47</text><text transform="matrix(1.1593 0 0 1 757.3291 36.5791)" class="E F">48</text><text transform="matrix(1.1593 0 0 1 109.9849 75.2871)" class="E F">6,5</text><text transform="matrix(1.1593 0 0 1 186.5112 75.2871)" class="E F">7</text></svg>