<svg xmlns="http://www.w3.org/2000/svg" viewBox="0 0 806 108"  xmlns:v="https://vecta.io/nano"><style><![CDATA[.F{font-family:ArialMT}.G{font-size:9.476px}.H{stroke:#000}.I{stroke-miterlimit:10}]]></style><g fill="#5c99e8" class="H I"><path d="M7 13.3h98.5v43.4H7z"/><path d="M105.5 13.3H204v43.4h-98.5z"/><path d="M204 13.3h98.5v43.4H204z"/><path d="M302.5 13.3H401v43.4h-98.5z"/><path d="M401 13.3h98.5v43.4H401z"/><path d="M499.5 13.3H598v43.4h-98.5z"/><path d="M598 13.3h98.5v43.4H598z"/><path d="M696.5 13.3H795v43.4h-98.5zM7 56.6h98.5V100H7z"/></g><g fill="#eaeaea" class="H I"><path d="M105.5 56.6H204V100h-98.5z"/><path d="M204 56.6h98.5V100H204z"/><path d="M302.5 56.6H401V100h-98.5z"/><path d="M401 56.6h98.5V100H401z"/><path d="M499.5 56.6H598V100h-98.5z"/><path d="M598 56.6h98.5V100H598z"/><path d="M696.5 56.6H795V100h-98.5z"/></g><text transform="matrix(1.4037 0 0 1 35.7959 37.8936)" class="F G">Размер</text><text transform="matrix(1.4037 0 0 1 11.356 78.7266)" class="F G">Обхват ладони</text><text transform="matrix(1.4037 0 0 1 48.6587 88.4385)" class="F G">см</text><text transform="matrix(1.4037 -.00057 .0008 1 143.365 31.9132)" class="F G">XXS</text><text transform="matrix(1.4037 -.00057 .0008 1 143.3741 43.3136)" class="F G">  6</text><text transform="matrix(1.4037 0 0 1 245.8198 31.9229)" class="F G">XS</text><text transform="matrix(1.4037 0 0 1 245.8198 43.3228)" class="F G"> 7</text><text transform="matrix(1.4037 0 0 1 341.6592 31.9229)" class="F G">   S</text><text transform="matrix(1.4037 0 0 1 341.6592 43.3228)" class="F G"> 7,5</text><text transform="matrix(1.4037 0 0 1 444.6353 31.9229)" class="F G">M</text><text transform="matrix(1.4037 0 0 1 444.6353 43.3228)" class="F G"> 8</text><text transform="matrix(1.4037 0 0 1 541.5854 31.9229)" class="F G"> L</text><text transform="matrix(1.4037 0 0 1 541.5854 43.3228)" class="F G">10</text><text transform="matrix(1.4037 0 0 1 639.9663 31.9229)" class="F G">XL</text><text transform="matrix(1.4037 0 0 1 639.9663 43.3228)" class="F G">11</text><text transform="matrix(1.4037 0 0 1 734.584 31.9229)" class="F G">XXL</text><text transform="matrix(1.4037 0 0 1 734.584 43.3228)" class="F G"> 12</text><text transform="matrix(1.4037 0 0 1 135.3159 81.2441)" class="F G">15 - 16</text><text transform="matrix(1.4037 0 0 1 233.8159 81.2441)" class="F G">17 - 18</text><text transform="matrix(1.4037 0 0 1 332.3164 81.2441)" class="F G">19 - 20</text><text transform="matrix(1.4037 0 0 1 430.8164 81.2441)" class="F G">21 - 23</text><text transform="matrix(1.4037 0 0 1 529.3169 81.2441)" class="F G">24 - 25</text><text transform="matrix(1.4037 0 0 1 627.8169 81.2441)" class="F G">26 - 27</text><text transform="matrix(1.4037 0 0 1 726.3164 81.2441)" class="F G">28 - 29</text></svg>