<svg xmlns="http://www.w3.org/2000/svg" viewBox="0 0 1300 96"  xmlns:v="https://vecta.io/nano"><style><![CDATA[.E{font-family:MyriadPro-Regular}.F{font-size:20px}.G{stroke:#000}.H{stroke-miterlimit:10}]]></style><g fill="#5c99e8" class="G H"><path d="M152 8H11v39.8h211.5V8z"/><path d="M222.5 8.2h106.8V48H222.5z"/><path d="M329.3 8h106.8v39.8H329.3zM543 8h107v39.8H543z"/><path d="M436 8h107.2v39.8H436zm213.8 0h106.8v39.8H649.8zm106.9 0h106.8v39.8H756.7z"/><path d="M863.5 8h106.8v39.8H863.5zm106.9 0h106.8v39.8H970.4zm212.9 0h106.8v39.8h-106.8zM152 47.8H11v39.9h211.5V47.8z"/></g><g fill="#eaeaea" class="G H"><path d="M222.5 47.8h106.8v39.8H222.5z"/><path d="M329.3 47.8h106.8v39.8H329.3z"/><path d="M436.1 47.8h106.8v39.8H436.1zm106.9 0h106.8v39.8H543z"/><path d="M649.8 47.8h106.8v39.8H649.8zm106.9 0h106.8v39.8H756.7z"/><path d="M863.5 47.8h106.8v39.8H863.5zm106.9 0h106.8v39.8H970.4z"/></g><path d="M1076.7 8h106.8v39.8h-106.8z" fill="#5c99e8" class="G H"/><g fill="#eaeaea" class="G H"><path d="M1076.7 47.8h106.8v39.8h-106.8z"/><path d="M1183.5 47.8h106.8v39.8h-106.8z"/></g><text transform="translate(71.37 36.428)" class="E F">Размер</text><text transform="translate(29.716 74.207)" class="E F">Обхват головы, см</text><text transform="translate(264.59 74.207)" class="E F">48</text><text transform="translate(371.439 74.207)" class="E F">50</text><text transform="translate(478.289 74.207)" class="E F">52</text><text transform="translate(570.476 74.207)" class="E F">53-54</text><text transform="translate(677.326 74.207)" class="E F">55-56</text><text transform="translate(784.176 74.207)" class="E F">57-58</text><text transform="translate(891.025 74.207)" class="E F">59-60</text><text transform="translate(997.875 74.207)" class="E F">61-62</text><text transform="translate(1104.165 74.207)" class="E F">63-64</text><text transform="translate(1211.015 74.207)" class="E F">65-66</text><text transform="translate(245.823 34.565)" class="E F">XXXXS</text><text transform="translate(358.789 34.374)" class="E F">XXXS</text><text transform="translate(471.767 34.374)" class="E F">XXS</text><text transform="translate(584.796 34.374)" class="E F">XS</text><text transform="translate(801.28 34.374)" class="E F">M</text><text transform="translate(911.782 34.374)" class="E F">L</text><text transform="translate(1012.35 34.374)" class="E F">XL</text><text transform="translate(1112.524 34.374)" class="E F">XXL</text><text transform="translate(1213.035 34.374)" class="E F">XXXL</text><text transform="translate(697.851 34.374)" class="E F">S</text></svg>