<svg xmlns="http://www.w3.org/2000/svg" viewBox="0 0 938 456"  xmlns:v="https://vecta.io/nano"><style><![CDATA[.F{font-family:ArialMT}.G{font-size:13.514px}.H{stroke:#000}.I{stroke-miterlimit:10}]]></style><g fill="#5c99e8" class="H I"><path d="M10 18h131.3v42.6H10z"/><path d="M141.3 18h131.3v42.6H141.3z"/><path d="M272.6 18h131.3v42.6H272.6zM404 18h131.3v42.6H404zm131.4 0h131.3v42.6H535.4z"/><path d="M666.7 18H798v42.6H666.7z"/></g><g fill="#eaeaea" class="H I"><path d="M10 60.6h131.3v42.6H10z"/><path d="M141.3 60.6h131.3v42.6H141.3z"/><path d="M272.6 60.6h131.3v42.6H272.6zm131.4 0h131.3v42.6H404zm131.4 0h131.3v42.6H535.4z"/><path d="M666.7 60.6H798v42.6H666.7zM10 103.2h131.3v42.6H10z"/><path d="M141.3 103.2h131.3v42.6H141.3z"/><path d="M272.6 103.2h131.3v42.6H272.6zm131.4 0h131.3v42.6H404zm131.4 0h131.3v42.6H535.4z"/><path d="M666.7 103.2H798v42.6H666.7zM10 145.8h131.3v42.6H10z"/><path d="M141.3 145.8h131.3v42.6H141.3z"/><path d="M272.6 145.8h131.3v42.6H272.6zm131.4 0h131.3v42.6H404zm131.4 0h131.3v42.6H535.4z"/><path d="M666.7 145.8H798v42.6H666.7zM10 188.4h131.3V231H10z"/><path d="M141.3 188.4h131.3V231H141.3z"/><path d="M272.6 188.4h131.3V231H272.6zm131.4 0h131.3V231H404zm131.4 0h131.3V231H535.4z"/><path d="M666.7 188.4H798V231H666.7zM10 231h131.3v42.6H10z"/><path d="M141.3 231h131.3v42.6H141.3z"/><path d="M272.6 231h131.3v42.6H272.6zm131.4 0h131.3v42.6H404zm131.4 0h131.3v42.6H535.4z"/><path d="M666.7 231H798v42.6H666.7zM10 273.6h131.3v42.6H10z"/><path d="M141.3 273.6h131.3v42.6H141.3z"/><path d="M272.6 273.6h131.3v42.6H272.6zm131.4 0h131.3v42.6H404zm131.4 0h131.3v42.6H535.4z"/><path d="M666.7 273.6H798v42.6H666.7zM10 316.2h131.3v42.6H10z"/><path d="M141.3 316.2h131.3v42.6H141.3z"/><path d="M272.6 316.2h131.3v42.6H272.6zm131.4 0h131.3v42.6H404zm131.4 0h131.3v42.6H535.4z"/><path d="M666.7 316.2H798v42.6H666.7zM10 358.8h131.3v42.6H10z"/><path d="M141.3 358.8h131.3v42.6H141.3z"/><path d="M272.6 358.8h131.3v42.6H272.6zm131.4 0h131.3v42.6H404zm131.4 0h131.3v42.6H535.4z"/><path d="M666.7 358.8H798v42.6H666.7zM10 401.4h131.3V444H10z"/><path d="M141.3 401.4h131.3V444H141.3z"/><path d="M272.6 401.4h131.3V444H272.6zm131.4 0h131.3V444H404zm131.4 0h131.3V444H535.4z"/><path d="M666.7 401.4H798V444H666.7z"/></g><text transform="matrix(1.3452 0 0 1 47.2349 43.2666)" class="F G">Размер</text><text transform="matrix(1.3452 0 0 1 178.5659 35.5454)" class="F G">Размер</text><text transform="matrix(1.3452 0 0 1 309.8979 36.188)" class="F G">Размер</text><text transform="matrix(1.3452 0 0 1 191.0732 52.2759)" class="F G">USA</text><text transform="matrix(1.3452 0 0 1 321.041 52.3208)" class="F G">Euro</text><text transform="matrix(1.3452 0 0 1 447.8086 36.0186)" class="F G">Грудь</text><text transform="matrix(1.3452 0 0 1 578.5859 35.375)" class="F G">Талия</text><text transform="matrix(1.3452 0 0 1 708.4082 35.375)" class="F G">Бедра</text><text transform="matrix(1.3452 0 0 1 65.9951 171.0669)" class="F G">XS</text><text transform="matrix(1.3452 0 0 1 65.9951 128.4663)" class="F G">XS</text><text transform="matrix(1.3452 0 0 1 71.1851 213.667)" class="F G">S</text><text transform="matrix(1.3452 0 0 1 68.3579 256.2666)" class="F G">M</text><text transform="matrix(1.3452 0 0 1 71.376 298.8667)" class="F G">L</text><text transform="matrix(1.3452 0 0 1 66.1855 341.4668)" class="F G">XL</text><text transform="matrix(1.3452 0 0 1 61.1318 384.0664)" class="F G">XXL</text><text transform="matrix(1.3452 0 0 1 56.0786 426.667)" class="F G">XXXL</text><text transform="matrix(1.3452 0 0 1 197.6719 85.8667)" class="F G">34</text><text transform="matrix(1.3452 0 0 1 197.6719 128.4663)" class="F G">36</text><text transform="matrix(1.3452 0 0 1 197.6719 171.0669)" class="F G">38</text><text transform="matrix(1.3452 0 0 1 197.6719 213.667)" class="F G">40</text><text transform="matrix(1.3452 0 0 1 197.6719 256.2666)" class="F G">42</text><text transform="matrix(1.3452 0 0 1 197.6719 298.8667)" class="F G">44</text><text transform="matrix(1.3452 0 0 1 197.6719 341.4668)" class="F G">46</text><text transform="matrix(1.3452 0 0 1 197.6719 384.0664)" class="F G">48</text><text transform="matrix(1.3452 0 0 1 197.6719 426.667)" class="F G">50</text><text transform="matrix(1.3452 0 0 1 459.7793 52.1064)" class="F G">см</text><text transform="matrix(1.3452 0 0 1 591.1104 53.3931)" class="F G">см</text><text transform="matrix(1.3452 0 0 1 722.4424 52.1064)" class="F G">см</text><text transform="matrix(1.3452 0 0 1 60.9409 85.8667)" class="F G">XXS</text><text transform="matrix(1.3452 0 0 1 329.0034 85.8667)" class="F G">44</text><text transform="matrix(1.3452 0 0 1 329.0034 128.4663)" class="F G">46</text><text transform="matrix(1.3452 0 0 1 329.0034 171.0669)" class="F G">48</text><text transform="matrix(1.3452 0 0 1 329.0034 213.667)" class="F G">50</text><text transform="matrix(1.3452 0 0 1 329.0034 256.2666)" class="F G">52</text><text transform="matrix(1.3452 0 0 1 329.0034 298.8667)" class="F G">54</text><text transform="matrix(1.3452 0 0 1 329.0034 341.4668)" class="F G">56</text><text transform="matrix(1.3452 0 0 1 329.0034 384.0664)" class="F G">58</text><text transform="matrix(1.3452 0 0 1 329.0034 426.667)" class="F G">60</text><text transform="matrix(1.3452 0 0 1 448.2188 85.8667)" class="F G">88 - 91</text><text transform="matrix(1.3452 0 0 1 448.2188 128.4663)" class="F G">92 - 95</text><text transform="matrix(1.3452 0 0 1 443.5557 171.0669)" class="F G">96 - 100</text><text transform="matrix(1.3452 0 0 1 438.8936 213.667)" class="F G">101 - 103</text><text transform="matrix(1.3452 0 0 1 438.8936 256.2661)" class="F G">104 - 107</text><text transform="matrix(1.3452 0 0 1 438.8936 298.8667)" class="F G">109 - 111</text><text transform="matrix(1.3452 0 0 1 438.8936 341.4668)" class="F G">112 - 115</text><text transform="matrix(1.3452 0 0 1 438.8936 384.0664)" class="F G">116 - 119</text><text transform="matrix(1.3452 0 0 1 438.8936 426.667)" class="F G">120 - 123</text><text transform="matrix(1.3452 0 0 1 575.6963 85.8667)" class="F G">75 - 78</text><text transform="matrix(1.3452 0 0 1 575.6963 128.4663)" class="F G">79 - 82</text><text transform="matrix(1.3452 0 0 1 575.6963 171.0669)" class="F G">83 - 86</text><text transform="matrix(1.3452 0 0 1 575.6963 213.667)" class="F G">87 - 90</text><text transform="matrix(1.3452 0 0 1 575.6963 256.2666)" class="F G">91 - 94</text><text transform="matrix(1.3452 0 0 1 575.6963 298.8667)" class="F G">95 - 98</text><text transform="matrix(1.3452 0 0 1 571.0332 341.4668)" class="F G">99 - 102</text><text transform="matrix(1.3452 0 0 1 566.3701 384.0664)" class="F G">103 - 107</text><text transform="matrix(1.3452 0 0 1 566.3701 426.667)" class="F G">108 - 112</text><text transform="matrix(1.3452 0 0 1 707.0273 85.8667)" class="F G">92 - 95</text><text transform="matrix(1.3452 0 0 1 707.0273 128.4663)" class="F G">96 - 99</text><text transform="matrix(1.3452 0 0 1 697.7021 171.0669)" class="F G">100 - 103</text><text transform="matrix(1.3452 0 0 1 697.7021 213.667)" class="F G">104 - 107</text><text transform="matrix(1.3452 0 0 1 697.7021 256.2666)" class="F G">108 - 111</text><text transform="matrix(1.3452 0 0 1 697.7021 298.8667)" class="F G">112 - 115</text><text transform="matrix(1.3452 0 0 1 697.7021 341.4668)" class="F G">116 - 119</text><text transform="matrix(1.3452 0 0 1 697.7021 384.0664)" class="F G">120 - 123</text><text transform="matrix(1.3452 0 0 1 697.7021 426.667)" class="F G">124 - 127</text></svg>