<svg xmlns="http://www.w3.org/2000/svg" viewBox="0 0 300 300"  xmlns:v="https://vecta.io/nano"><style><![CDATA[.N{stroke-miterlimit:10}.O{stroke-width:1.852}.P{fill:#1d1d1b}.Q{stroke:#1d1d1b}.R{stroke-width:1.234}]]></style><path d="M83.1 73.5s4.8 35.5 5.8 37.5 5.1 7 1.2 10.1-11.7 10.3-13.3 14c-1.6 3.6-5.7 14.5-8.8 16.6-2.7 5-14 31.1-16.2 55.7-1.4 16.4-.4 29.7 2.1 33.6s2.4 2.4 2.4 2.4-2 24.7 10.8 24.9c1.8 4.7 1.8 12.6 9 13.2 6.8-.5 8.5-.8 9.8-6 1.7 1.2 11.3 12.3 17.7 0s12.2-32.1 12.2-32.1 9.7-21.5 9.9-24.1c.3-2.7 2.5 29 15.1 10.4l11.4-22.3s1.1-4.3-1.5-5.7c-.9-5.3-6.6-48.3-6.5-53.1s5.3-23.2 6.8-25.4 18.9-27.6 16.1-39.1c-5.1-5.6-32.9-20-32.9-20L121.5 56s-5.3-13.7-26.9-13c-7 5.7-11.6 9.3-12.9 20 .2 6.1 1.4 10.5 1.4 10.5z" fill="#4a494a"/><path d="M81.7 170.1s-5-11-17.4-4.3c-5.2 5.4-6.3 16.2-3.4 19.9s10.6 9.9 26.7 15c16 5.1 26.4 9.9 34.1 5.1 5.4-5.4 6.9-12.7 2.5-20.1s-11.9-6.6-11.9-6.6L90.1 174" class="P"/><g fill="#634139"><path d="M68.4 217s-13.4 8.7-3.2 15.7c5.1-1.9 10.6-10.1 3.2-15.7z"/><ellipse transform="matrix(.3925 -.9198 .9198 .3925 -158.0902 242.4465)" cx="104.5" cy="240.9" rx="8.4" ry="4.7"/><ellipse transform="matrix(.3925 -.9198 .9198 .3925 -164.9023 221.2924)" cx="85.1" cy="235.5" rx="8.4" ry="4.7"/></g><g class="P"><path d="M149.2 193.4s-9.5 18.8-4.2 28.2c3.3-5.5 7.5-15.8 7.5-15.8l-1.8-4.1-1.5-8.3zm-69.1-45.2s5-12.9 20.1-3.7c14.7 4.2 29.7 4.6 23.3 14.5l-4.2 9.9-12-3.8c.1 0-23.7-12.1-27.2-16.9zM56.3 257.8s8.1-14.3 11.8-11.1c.4 2-6.6 14.4 3.2 10l-3.2 11.7s-5.9 2.4-11.8-10.6zM67.8 271s7.7-5.5 8.2-11.6c1.2-5.7 5.1-11.8 8.2-11.4l.8.5s-9.1 20.6 3.5 16.6c-1 5.1-2.7 18.3-12.5 16.4-5.4-1-7.2-3.7-8.2-10.5z"/><path d="M88.5 268.3s7.8-5.5 9.6-12.2c1.9-2.7 5.1-4.8 6.5-4.3 1.5.5-5 11.3 0 10.5l5-.8s-7.7 19.3-11.5 19.4c-7.4-1.5-12.3-5.4-12.3-5.4l2.7-7.2zm31.4-213.6s1.4 13.3 10.9 17.4c3.1 6.7 7 22 7.4 35.8 1.6 3 9.5 8.4 17.9 7.1 2.6-4.4 13.1-27.2 10.9-30.9s-.7-4.9-21.8-13.5c-13.6-8.3-21.1-13.5-21.1-13.5l-4.2-2.4z"/></g><path d="M131.5 62.4s5.4-5.7 7.3-6.8 22.2-18 22.2-18 17.8-9.9 23.4-8.7c5-2.3 16.5-10.5 22.1-5.1 5.6 5.3 2.9 13.5 2.9 13.5l3.6 40.2-6 11.4 3.2 4.3s10.8 11.6 23.4 35.9c7.7 11.3 8.4 12.9 8.4 12.9s12 53.2 9.7 61.3-4.9 14.6-4.9 14.6 5.4 22.9-12.3 25.5c-.9 5.3-2.4 14.2-9.1 12.4 0 0-6.4-9.5-7.4-8.6s-9.2 11.3-14.7 3.1c-5.4-8.1-19.4-47-19.4-47l-8.3-25.8-1.9 9.1s-2 23.1-8.8 23c-5.6-2.1-12.2-6.4-14.8-35.9-.2-17.4 2.2-33.9 4.5-39.6s3.5-9.2 3.5-9.2l-.8-10 4.9-10.9s5.3-11.1 5.1-15.5-.7-8-3.4-9.3-27.2-10.4-32.4-16.8z" fill="#4a494a"/><path d="M157.3 141.4l4.9-9.7 13.1-2.6s7.3 3.5 6.5 8.5c-3.2 4.8-14.9 14.7-14.9 14.7s-8.4 4.9-9.6-10.9z" class="P"/><path d="M220.5 106.9s-13.1-.1-15.4 5.9-4.9 12.6 4.4 14.4c6-2.3 16.7-10.2 16.7-10.2l-5.7-10.1z" fill="#634139"/><linearGradient id="A" gradientUnits="userSpaceOnUse" x1="234.675" y1="251.985" x2="222.425" y2="206.735"><stop offset="0" stop-color="#1a1a1a"/><stop offset="1" stop-color="#4a494a"/></linearGradient><path d="M185.4 207.3S202 245 202.5 248s3.5 7.5 8.5 4.7c6-2.6 6.7-6.5 7.9-5.6s8.3 17.2 14.7 1.5c.8-5.3-.8-5.4 5.3-6.5 3.2-2.3 9.5-4.8 8.3-22-.4-2.4-.2-3.3 1.3-6.2s5.3-11.4 2.4-24.2l-3.9-29.8s-29 0-36 7-27 23-27 26 1.4 14.4 1.4 14.4z" fill="url(#A)"/><path d="M240.2 216.5s-5.8-13.1-3.5-18.7c.4-6.2-1.7-9.3-2.8-13.4s2-10.5 2-10.5-8.6-35.3-16.6-38.9c-8.6-1.4-29.6 5.2-31.6 4.1s8 16.8 7.6 20.1-.6 16.4-.7 16.7-5.3 4.5-6.3-.4-3.5-16-10.4-13.3c-3.5 2.4-4.4 1.4-4.2 10.9 1.8 6 9.9 30.2 9.9 30.2l2-1.5s7.3 13.2 8.9 12.9c1.7-.3 5.1-2.8 4.1-6.3s-9.3-21.7-.6-15.8c8.4 8.5 12.9 14.3 12.9 14.3s8 2.3 2.8-11.8l-2.1-4.4s-1.6-6.8 2.2-6.3c1.2.2 2.3 5.1 3.9 7.6 2.8 4.5 6 7.7 6 7.7s5.4.8 4.8-1.7-2.9-20.8-2.9-20.8 2.3-5 3.5 6 6 31.6 6 31.6l5.1 1.7zm-90.7-143s-3-22.3 5.7-23.4c8.7-1.2 37-7.9 37-7.9l17.2-6.3s3.2-14.9-10.5-13.5l-13 5.8-10.8 2.8-13.2 5.6-19.8 16.5-10.6 8.9 18 11.5zm62 21.2s-16-7.6-50.4 11.8c-1 3.2-2 13.8 2.1 14s36.3-12.2 36.3-12.2S215 100.8 215 99c-.1-1.8-3.5-4.3-3.5-4.3z" class="P"/><linearGradient id="B" gradientUnits="userSpaceOnUse" x1="118.222" y1="47.386" x2="115.192" y2="83.244"><stop offset="0" stop-color="#333"/><stop offset="1" stop-color="#4a494a"/></linearGradient><path d="M84.6 87.3s70.7 28.4 61.8 26.5c-3.3-.7-6-2.4-7.4-4.9-4.1-7.2-1.3-21.2-8-37-.7-1.6-7-.6-7-6 0-2.1-2.7-3.7-3-6-1-7-7.6-13.2-9.3-13.8-2.5-.8-8.7-5.1-15.6-3.2-3.3.9-6.8 3.2-10 8.1-4.1 11.9-4.6 14.5-3.3 20.2 1.5 7.5 1.8 16.1 1.8 16.1z" fill="url(#B)"/><g fill="none" class="Q N"><g class="O"><path d="M105.9 44.1s-15.7-6.2-21.5 10.8c-4.6 11.6-3.1 13.1-1.9 15.4s3.1 39.7 8.1 43.6c2.7 3.9 1.5 5.9-2.7 8.9s-10.8 9.2-13.1 16.9c-1.2 5.4-5.8 8.1-11.6 21.2S48 217.7 50.9 228.5c2.8 10.8 2.1 13.4 5.4 14.9.8 2.8-1.8 27 11.6 24.9 1.3 2.3.3 11.3 6.7 12.9 6.4 1.5 9.5 1.3 11.3-5.7 1.8.5 11.1 12.1 17.7 0 4.4-9.8 8-20.8 9.8-26.5s9.8-18.8 12.3-31.1c.8 7.7 2.8 15.2 5.9 17s7.2-1.3 9.5-5.9 8-14.9 8-15.7 6.4-8 1.5-11.6c-1-3.9-3.9-28.8-5.4-40.1-1-4.9-1.5-18-.5-20.8s5.1-14.4 4.9-15.2 12.6-17.7 17-33.2c1.3-8.5 1.8-11.8-7.7-15.2s-31.4-17-32.9-18.8-5.7-2.8-5.7-2.8-2.8-8.9-14.4-11.5z"/><path d="M120.3 55.7s0 11.3 10.5 16.7c3.6 6.9 6.7 16.5 6.4 29.1 1 5.9-2.1 11.5 18.9 13.5m-85.2 32.1s6.4-2 9.5 1.4 19.8 15.2 33.4 18.8 22.8 9.3 24.9 8.8M72.4 163s5.2 1.2 9 7.1c3.9 3.1 20.1 7.7 20.1 7.7s16.2 1.4 19.5 3.9c3.9 2.8 14.7 22.6-6.7 26.7-13.1-1.8-41.7-12.3-52.5-19.8-2.5-5.9-7.1-23.9 10.6-25.6zm-16.1 80.4s3.5-10.3 4.4-15.3 1.7-10.6 2.9-12.5 1.9-8.9 2.5-11.8 1.7-8.7 0-8.7c-1 2.3-1 8.5-1 8.5"/><path d="M67.8 268.3s5.4-15.8 6.2-19.2-1-8.9 0-11.2 3.7-10.8 5.2-12 4.8-16 5-17.6-3.1-5-3.1 0 .8 6.2.8 6.2m3.9 61s10.4-40.5 11.7-42.4 6.2-15 6.8-16.2-.1-8.6-1.7 0-1.2 4.4-1.2 4.4M89.1 111.7s6.9 9.4 29.1 8.4c11.4 1.4 29.8 3.9 31.4 5.5m-69.2 22.9s3.5-9.4 12.9-6.5 28 8 28 8 6.2 1.5 2.4 9c-3.7 7.5-4.4 9.9-4.4 9.9"/></g><path d="M125.7 217.9s6.9-32.1 10-36.3c0 0 9.9-17.8 9.5-20.1" class="R"/><path d="M90.1 121.1s54.7 16.8 55.3 18" class="O"/><path d="M87.6 123.3s49.2 17.3 57.5 19.1" stroke-width="2.16"/><path d="M85.1 125.6s43.8 17.8 59.7 20.1" stroke-width="2.469"/><path d="M82.6 127.8s38.4 18.3 61.9 21.2" stroke-width="2.777"/><path d="M80.1 130.1s33 18.8 64.1 22.2" stroke-width="3.086"/></g><g class="P"><ellipse transform="matrix(.2688 -.9632 .9632 .2688 -155.5266 277.0389)" cx="104.7" cy="241" rx="8.4" ry="4.9"/><ellipse transform="matrix(.2688 -.9632 .9632 .2688 -164.6105 254.1038)" cx="85.1" cy="235.5" rx="8.4" ry="4.9"/><ellipse transform="matrix(.2688 -.9632 .9632 .2688 -167.9046 229.1922)" cx="67" cy="225.2" rx="8.4" ry="4.9"/></g><path d="M68.4 270.2s5.1-.4 8.6-13.9c1.9-5.9 5.8-8.7 8.1-8.1-.9 1.9-4 12.5-3.5 14.3s1.5 3.6 6.9 2.7m-1 3.7s5.1-3.2 7.6-6.8 3.6-10.7 9.3-10.4c1.7.6-1.6 5.4-1.7 8.6s2.1 1.7 6 1.2m-51.3-3.7c2.5-3.6 4.8-11.4 10.6-11.1 1.7.6-1.6 5.4-1.7 8.6s1 1.9 4.9 1.3m-1.8-107.1s18.4 15.4 33.3 19.4 32 8.6 33.6 11.7" fill="none" class="N Q R"/><linearGradient id="C" gradientUnits="userSpaceOnUse" x1="172.626" y1="48.196" x2="196.626" y2="90.446"><stop offset="0" stop-color="#333"/><stop offset="1" stop-color="#4a494a"/></linearGradient><path d="M209.9 34.6S188 43 181 44c-10 2-23 4-26 5s-7 4-7 14-4 10 11 14c6 4 7.5 2.5 8.3 9.8-.5 2.5 0 1.7 0 1.7S167 95 161 107c9-4 30.6-17.9 51.3-11.9-5.6-4.1-7.5-5.5-3.4-9.8 3.2-4.6 5.3-7.3 4.2-11.8s-3.6-34.8-3.6-34.8l.4-4.1z" fill="url(#C)"/><g fill="none" class="N Q"><path d="M131.5 62.4s4.6-6 7.3-6.8c2.6-.8 16.8-13.1 24-19.5 4.6-1.8 17.5-8.2 22.6-6.9 4.6-2.6 19.8-14.7 23.9-.2 0 0 .5 4.3 0 10.5 1.5 6.4 4.4 33.2 3.9 37.5-.5 4.4-6.4 12.3-6.4 12.3.5 2.3 4.2 4.1 6.5 6.2s6.6 10 6.6 10 4.6 5.4 6.4 10.8c2.6 4.4 14.7 21.1 16.5 27.5s11.3 53.1 8.5 61.9-3.1 10.1-4.4 10.8c-.5 6.4 4.4 24.2-12.3 26.7-.5 4.9-1.5 11.6-7.2 12.6s-6.9-12.8-10.3-7.9c-3.3 4.8-11.8 8.4-13.9 1.8-2.1-6.7-16.7-41.1-19.8-47.8s-6.9-24.6-8.7-25.9c-.3 4.8-1.5 22.3-3.6 26.7s-8.7 13.4-13.6 1-14.9-45 .8-78.2c0-5.9-.8-12.6-.8-12.6" class="O"/><path d="M167.1 88.9s41.3-17.4 45.2-9.2m.9 15.8c-15.8-9-52.4 11.1-52.4 11.1s-4.2 18 6.3 13.3c10.5-4.6 58.2-17.4 46.1-24.4z" class="R"/><g class="O"><path d="M217 248s-4.1-38-14.7-52.9c-2.6.7 2.4 4.1 4.7 9m27.5 39.3s-4.9 9-15.2-53.6c-1.8-4.8-6.2-7.7-1 4.2l2.2 5.8m20.3 18.1s-6.4-16.3-4.4-19.9c2-3.7.5-6.8-.4-8.2s-4.3-7.4 0-15.3c-.2-8.3-8.4-31.1-16.2-39.3-5.2-2.3-5.6-1-15 1.7-9.5 2.7-16.2 2.8-17.2 2.1-1.1-.6 14.6 26.1 6.5 38.3"/><path d="M173.9 184.3s-.4-20.8 1.9-21.3 9.2-5.1 11.6 9.7c2.4 6.4 2.1 6.7 9.4 3.3 5.6-2.5 12.6-8.8 15.7-11.6 1-1 2.4-1.5 3.8-1.5h17.2"/></g><path d="M184.4 204.4s.4-4.1 2-1.9c1.5 2.2 7.5 14.4 9.9 12.2s3.7-3.6 1.9-8.9-5.8-13.8-2.7-14.1 5.8 4.4 5.8 4.4m2.8 1.9l-.9-2.9s7.2 14.7 10.9 11.9c2.2-1.4 3.6-5-1.5-14.7-1.5-3 0-10.6 3-6.1" class="R"/><path d="M246.8 216.6s-10 7.4-13.6-10.8-4.4-28-4.4-28-4.1-6.4-2.6 2.8l1.5 9.2c3 10.2-1.2 10.2-2.4 10.3-1.3.1-5.9-9.6-5.9-9.6" class="O"/></g><path d="M204.6 113.3s-2.7 7.5 0 10.6 5.2 5.3 9.6 1.7c4.3-3.6 12.1-9.3 12.1-9.3l-5.3-9.4c-.1 0-14.7 0-16.4 6.4z" class="P"/><g fill="none" class="Q N"><path d="M160.6 151.5c1.5 2.1 4.6 2.3 6.5.6l14.5-13s.6-1.9-1-5.2c-1.5-3.3-3.7-4.8-6.2-4.8 0 0-9.5 1.6-10.8 2.6-1.4 1-5.6 8.8-6.2 10.4-.4 1.4-.6 4.4 3.2 9.4zm1.1 58.1s2.1-7.7-2.6-29c-1.5-13.1-.6-24.5-3-28.3s-1.2-19.6.4-23.2" class="O"/><path d="M138.8 175.5s5.9-8 7.2-8.3m-8.1 10.5s7.2-7.7 8.3-8.1m-9.1 10.3s8.4-7.4 9.4-8M136.2 182s9.7-7 10.5-7.9m-11.3 10.1s11-6.7 11.6-7.7m-12.5 9.9s12.3-6.4 12.7-7.6m-13.5 9.8s13.5-6.1 13.8-7.5m-14.7 9.6s14.8-5.7 14.9-7.4m-15.7 9.6s16.1-5.4 16-7.2m-16.9 9.4s17.3-5.1 17.1-7.1" stroke-width=".617"/><path d="M149.2 192.6s-8.5 14.5-4.5 29.7" class="O"/></g></svg>