<svg xmlns="http://www.w3.org/2000/svg" viewBox="0 0 316 313"  xmlns:v="https://vecta.io/nano"><linearGradient id="A" gradientUnits="userSpaceOnUse" x1="15" y1="155.5" x2="300" y2="155.5"><stop offset="0" stop-color="#d500b2"/><stop offset="1" stop-color="#7818f8"/></linearGradient><circle cx="157.5" cy="155.5" r="142.5" fill="url(#A)"/><circle cx="157" cy="156" r="138" fill="#fcfcfc"/><linearGradient id="B" gradientUnits="userSpaceOnUse" x1="31" y1="156" x2="285" y2="156"><stop offset="0" stop-color="#d500b2"/><stop offset="1" stop-color="#7818f8"/></linearGradient><circle cx="158" cy="156" r="127" fill="url(#B)"/><path d="M219 149v-16h-12.4c2.4-5.2 3.6-10.7 3.6-16.4 0-27.2-22-49.5-58.2-49.5-17.1 0-34.5 6.4-43.9 11.9l1 27c6.6-4.2 27.9-15.9 43.6-15.9 18.1 0 28.2 10.5 28.2 23 0 8.9-4.2 14.7-12.9 19.9H95v16h37.6c-7.9 4.3-14.1 9.3-18.7 15H95v16h11c-1 3.9-1.5 8-1.5 12.6 0 29.6 23 50.5 63.1 50.5 18.5 0 34.6-7.1 46.4-14.1l-2-28c-9.1 5.9-29.8 19.4-45.1 19.4-22.3 0-32.8-11.2-32.8-25.1 0-6.1 1.5-11 4.9-15.3h80v-16h-52.6c11.5-4.2 20.6-9.2 27.5-15H219z" fill="#fff"/></svg>